<?xml version="1.0" encoding="iso-8859-1"?>
<!-- Generator: Adobe Illustrator 19.0.0, SVG Export Plug-In . SVG Version: 6.00 Build 0)  -->
<svg version="1.1" id="Capa_1" xmlns="http://www.w3.org/2000/svg" xmlns:xlink="http://www.w3.org/1999/xlink" x="0px" y="0px"
	 viewBox="0 0 480 480" style="enable-background:new 0 0 480 480;" xml:space="preserve">
<g>
	<g>
		<path d="M142.52,312.008c-3.377-9.552-12.389-15.955-22.52-16c-10.134,0.042-19.15,6.445-22.528,16
			c-1.966,5.152-1.966,10.848,0,16c4.341,12.44,17.944,19.005,30.384,14.664c6.868-2.397,12.267-7.796,14.664-14.664
			C144.485,322.855,144.485,317.16,142.52,312.008z M120,328.008c-4.418,0-8-3.582-8-8s3.582-8,8-8s8,3.582,8,8
			S124.418,328.008,120,328.008z"/>
	</g>
</g>
<g>
	<g>
		<path d="M96,136.008H32v80h144v-80H96z M96,200.008H48v-48h48V200.008z M160,200.008h-48v-48h48V200.008z"/>
	</g>
</g>
<g>
	<g>
		<path d="M478.16,201.976l-34.664-83.2c-3.714-8.957-12.464-14.788-22.16-14.768H24c-13.255,0-24,10.745-24,24v176
			c0,13.255,10.745,24,24,24h40.64c4.391,30.574,32.736,51.8,63.311,47.409c24.574-3.529,43.88-22.836,47.409-47.409h129.28
			c4.391,30.574,32.736,51.8,63.311,47.409c24.574-3.529,43.88-22.836,47.409-47.409H456c13.255,0,24-10.745,24-24v-92.8
			C480.008,208.039,479.382,204.9,478.16,201.976z M440,152.008l20,48h-76v-48H440z M159.2,328.008
			c-4.396,21.65-25.51,35.636-47.16,31.24c-21.65-4.396-35.636-25.51-31.24-47.16s25.51-35.636,47.16-31.24
			c18.628,3.783,32.021,20.152,32.04,39.16C160.002,322.694,159.734,325.375,159.2,328.008z M192,312.008h-16.64
			c-4.391-30.575-32.736-51.8-63.311-47.409c-24.574,3.529-43.88,22.835-47.409,47.409H24c-4.418,0-8-3.582-8-8v-56h176V312.008z
			 M272,232.008v80h-64v-160h64V232.008z M399.2,328.008c-4.396,21.65-25.51,35.636-47.16,31.24
			c-21.65-4.396-35.636-25.51-31.24-47.16c4.396-21.65,25.51-35.636,47.16-31.24c18.628,3.783,32.021,20.152,32.04,39.16
			C400.002,322.694,399.734,325.375,399.2,328.008z M464,304.008c0,4.418-3.582,8-8,8h-40.64
			c-4.391-30.575-32.736-51.8-63.311-47.409c-24.574,3.529-43.88,22.835-47.409,47.409H288v-64h176V304.008z M464,232.008H288v-96
			h-96v96H16v-104c0-4.418,3.582-8,8-8h397.336c3.229,0,6.141,1.94,7.384,4.92l4.616,11.08H304v80h160V232.008z M368,152.008v48h-48
			v-48H368z"/>
	</g>
</g>
<g>
	<g>
		<path d="M382.52,312.008c-3.377-9.552-12.389-15.955-22.52-16c-10.134,0.042-19.15,6.445-22.528,16
			c-1.966,5.152-1.966,10.848,0,16c4.341,12.44,17.944,19.005,30.384,14.664c6.868-2.397,12.267-7.796,14.664-14.664
			C384.485,322.855,384.485,317.16,382.52,312.008z M360,328.008c-4.418,0-8-3.582-8-8s3.582-8,8-8s8,3.582,8,8
			S364.418,328.008,360,328.008z"/>
	</g>
</g>
<g>
</g>
<g>
</g>
<g>
</g>
<g>
</g>
<g>
</g>
<g>
</g>
<g>
</g>
<g>
</g>
<g>
</g>
<g>
</g>
<g>
</g>
<g>
</g>
<g>
</g>
<g>
</g>
<g>
</g>
</svg>
