<svg width="96" height="96" viewBox="0 0 96 96" fill="none" xmlns="http://www.w3.org/2000/svg">
<path d="M48 8C25.944 8 8 25.944 8 48C8 70.056 25.944 88 48 88C70.056 88 88 70.056 88 48C88 45.8833 87.8268 43.8075 87.5 41.7818C86.996 38.6576 83.2213 37.7474 80.9836 39.9851C79.9694 40.9994 79.5518 42.4523 79.7356 43.8749C79.91 45.2254 80 46.6026 80 48C80 65.644 65.644 80 48 80C30.356 80 16 65.644 16 48C16 30.356 30.356 16 48 16C53.3442 16 58.3829 17.3224 62.8164 19.6522C64.5312 20.5533 66.6653 20.3659 68.0351 18.9961C69.8041 17.2272 69.5746 14.2805 67.3909 13.0599C61.643 9.84708 55.0373 8 48 8ZM88 16C86.4381 14.4381 83.9057 14.4381 82.3438 16L47.5355 50.8082C45.5829 52.7608 42.4171 52.7608 40.4645 50.8082L33.6562 44C32.0943 42.4381 29.5619 42.4381 28 44C26.4381 45.5619 26.4381 48.0943 28 49.6562L40.4645 62.1207C42.4171 64.0733 45.5829 64.0733 47.5355 62.1207L88 21.6563C89.5619 20.0943 89.5619 17.5619 88 16Z" fill="#00DFA5"/>
</svg>
