<svg height="512pt" viewBox="0 0 512 512" width="512pt" xmlns="http://www.w3.org/2000/svg"><path d="m8.828125 282.484375h45.902344c12.0625 91.066406 83.71875 162.722656 174.785156 174.785156v45.902344c.015625 4.871094 3.960937 8.8125 8.828125 8.828125h35.3125c4.867188-.015625 8.8125-3.957031 8.828125-8.828125v-45.902344c91.066406-12.0625 162.722656-83.71875 174.785156-174.785156h45.902344c4.871094-.015625 8.8125-3.960937 8.828125-8.828125v-35.3125c-.015625-4.867188-3.957031-8.8125-8.828125-8.828125h-45.902344c-12.0625-91.066406-83.71875-162.722656-174.785156-174.785156v-45.902344c-.015625-4.871094-3.960937-8.8125-8.828125-8.828125h-35.3125c-4.867188.015625-8.8125 3.957031-8.828125 8.828125v45.902344c-91.066406 12.0625-162.722656 83.71875-174.785156 174.785156h-45.902344c-4.871094.015625-8.8125 3.960937-8.828125 8.828125v35.3125c.015625 4.867188 3.957031 8.8125 8.828125 8.828125zm247.171875-176.554687c82.878906 0 150.070312 67.191406 150.070312 150.070312s-67.191406 150.070312-150.070312 150.070312-150.070312-67.191406-150.070312-150.070312c.117187-82.832031 67.238281-149.953125 150.070312-150.070312zm0 0"/><path d="m326.621094 256c0 39.003906-31.617188 70.621094-70.621094 70.621094s-70.621094-31.617188-70.621094-70.621094 31.617188-70.621094 70.621094-70.621094 70.621094 31.617188 70.621094 70.621094zm0 0"/></svg>