<svg id="Capa_1" enable-background="new 0 0 512.555 512.555" height="512" viewBox="0 0 512.555 512.555" width="512" xmlns="http://www.w3.org/2000/svg"><g><path d="m437.493 141.799c-48.404-48.404-112.761-75.062-181.215-75.062-49.582 0-97.583 14.099-138.817 40.772-3.478 2.25-4.473 6.893-2.224 10.371 2.25 3.479 6.893 4.473 10.371 2.224 38.8-25.1 83.985-38.367 130.669-38.367 64.448 0 125.038 25.097 170.609 70.668 45.571 45.572 70.668 106.162 70.668 170.609 0 39.015-9.46 77.681-27.357 111.818-1.923 3.668-.508 8.202 3.16 10.125 1.112.583 2.302.859 3.476.859 2.7 0 5.309-1.462 6.649-4.019 19.019-36.277 29.072-77.352 29.072-118.783.001-68.453-26.657-132.81-75.061-181.215z"/><path d="m15 323.015c0-64.447 25.097-125.038 70.668-170.609 4.687-4.687 9.724-9.316 14.971-13.762 3.161-2.677 3.552-7.41.875-10.57-2.677-3.161-7.409-3.554-10.57-.875-5.562 4.711-10.905 9.623-15.882 14.601-48.404 48.404-75.062 112.761-75.062 181.215 0 41.431 10.053 82.506 29.072 118.783 1.341 2.557 3.949 4.019 6.649 4.019 1.174 0 2.365-.276 3.476-.859 3.668-1.923 5.083-6.457 3.16-10.125-17.897-34.137-27.357-72.803-27.357-111.818z"/><path d="m384.916 244.02-92.675 37.966c-9.902-8.664-22.738-13.554-35.963-13.554-8.388 0-16.444 1.86-23.946 5.528-3.721 1.819-5.263 6.311-3.443 10.032 1.82 3.722 6.313 5.262 10.032 3.443 5.433-2.657 11.272-4.003 17.357-4.003 7.045 0 13.765 1.818 19.677 5.226l-22.871 9.37c-6.17 2.528-11.015 7.572-13.292 13.84s-1.8 13.246 1.31 19.146c3.11 5.899 8.597 10.237 15.054 11.901 1.943.5 3.925.747 5.899.747 4.589 0 9.134-1.331 13.031-3.891l20.634-13.558c-1.635 20.334-18.694 36.384-39.442 36.384-21.826 0-39.582-17.756-39.582-39.582 0-5.625 1.167-11.073 3.467-16.193 1.697-3.778.011-8.217-3.768-9.915-3.778-1.698-8.218-.01-9.915 3.768-3.174 7.066-4.784 14.583-4.784 22.341 0 30.097 24.485 54.582 54.582 54.582s54.582-24.485 54.582-54.582c0-2.159-.144-4.327-.403-6.486l14.301-9.397c3.461-2.275 4.424-6.925 2.149-10.387s-6.925-4.425-10.387-2.149l-49.672 32.639c-2.076 1.365-4.543 1.774-6.95 1.154-2.406-.62-4.369-2.172-5.527-4.37s-1.329-4.694-.48-7.029c.848-2.335 2.582-4.14 4.88-5.082l83.698-34.289c-2.821 2.42-3.472 6.617-1.377 9.806 2.275 3.461 6.923 4.424 10.387 2.149l42.67-28.038c4.304-2.827 5.738-8.395 3.338-12.95-2.403-4.555-7.806-6.519-12.571-4.567z"/><path d="m414.572 164.719c-42.282-42.282-98.499-65.568-158.295-65.568s-116.013 23.286-158.295 65.568-65.568 98.499-65.568 158.295c0 36.078 8.8 71.947 25.45 103.729 1.92 3.667 6.448 5.085 10.118 3.167l36.089-18.866c3.671-1.919 5.091-6.45 3.172-10.121-1.918-3.67-6.45-5.091-10.121-3.172l-29.326 15.331c-6.755-14.133-11.885-29.045-15.311-44.362l14.824-2.67c4.077-.734 6.786-4.634 6.052-8.711-.734-4.076-4.635-6.78-8.711-6.052l-14.905 2.685c-1.533-10.23-2.33-20.583-2.33-30.958 0-2.992.078-5.965.203-8.926l15.889 1.325c.212.018.422.026.631.026 3.86 0 7.139-2.962 7.466-6.877.344-4.128-2.723-7.753-6.851-8.097l-15.965-1.331c1.54-13.47 4.36-26.556 8.348-39.13l14.861 5.334c.837.3 1.692.443 2.533.443 3.076 0 5.961-1.907 7.06-4.968 1.399-3.898-.627-8.193-4.525-9.593l-14.883-5.342c4.985-12.498 11.139-24.408 18.335-35.588l12.812 8.879c1.303.903 2.792 1.336 4.265 1.336 2.377 0 4.715-1.127 6.171-3.229 2.359-3.404 1.512-8.077-1.893-10.437l-12.793-8.866c8.024-10.703 17.05-20.613 26.938-29.59l8.777 10.349c1.484 1.75 3.597 2.649 5.724 2.649 1.714 0 3.437-.584 4.847-1.78 3.159-2.679 3.548-7.412.869-10.571l-8.759-10.329c10.464-8.22 21.729-15.464 33.657-21.593l6.877 14.534c1.281 2.708 3.975 4.294 6.784 4.294 1.075 0 2.167-.232 3.203-.723 3.744-1.771 5.343-6.243 3.572-9.987l-6.855-14.488c12.15-5.174 24.889-9.219 38.082-12.024l2.781 15.24c.66 3.62 3.816 6.155 7.369 6.155.447 0 .9-.04 1.355-.124 4.075-.744 6.775-4.649 6.031-8.725l-2.761-15.13c9.388-1.296 18.968-1.982 28.707-1.982s19.319.685 28.707 1.982l-2.761 15.13c-.744 4.075 1.957 7.981 6.031 8.725.456.083.908.124 1.355.124 3.553 0 6.709-2.536 7.369-6.155l2.781-15.24c13.193 2.805 25.932 6.851 38.082 12.024l-6.855 14.488c-1.771 3.744-.172 8.215 3.572 9.987 1.036.49 2.127.723 3.203.723 2.809 0 5.503-1.586 6.784-4.294l6.877-14.534c11.928 6.129 23.193 13.373 33.657 21.593l-8.759 10.329c-2.679 3.159-2.29 7.892.869 10.571 1.41 1.195 3.133 1.78 4.847 1.78 2.127 0 4.241-.9 5.724-2.649l8.777-10.349c9.888 8.977 18.914 18.888 26.938 29.59l-12.793 8.866c-3.405 2.359-4.252 7.032-1.893 10.437 1.457 2.102 3.794 3.229 6.171 3.229 1.473 0 2.962-.433 4.265-1.336l12.812-8.879c7.195 11.18 13.35 23.089 18.335 35.588l-14.883 5.342c-3.898 1.399-5.925 5.694-4.525 9.593 1.099 3.062 3.983 4.968 7.06 4.968.841 0 1.696-.143 2.533-.443l14.861-5.334c3.987 12.573 6.807 25.659 8.348 39.13l-15.965 1.331c-4.128.344-7.195 3.969-6.851 8.097.327 3.916 3.605 6.877 7.466 6.877.209 0 .419-.009.631-.026l15.889-1.325c.125 2.961.203 5.935.203 8.926 0 10.375-.797 20.727-2.33 30.958l-14.905-2.685c-4.079-.733-7.977 1.975-8.711 6.052s1.975 7.977 6.052 8.711l14.824 2.67c-3.427 15.317-8.556 30.228-15.311 44.362l-29.326-15.331c-3.669-1.918-8.202-.499-10.121 3.172s-.499 8.202 3.172 10.121l36.089 18.866c1.109.58 2.297.855 3.468.855 2.701 0 5.31-1.463 6.65-4.021 16.649-31.783 25.45-67.652 25.45-103.729 0-59.796-23.286-116.013-65.568-158.296z"/></g></svg>