<?xml version="1.0" encoding="UTF-8"?>
<svg xmlns="http://www.w3.org/2000/svg" id="Layer_1" data-name="Layer 1" viewBox="0 0 512 512" width="512" height="512"><path d="M494.907,375.867,461.4,352.246h0a6.571,6.571,0,0,0-10.354,5.359l-.036,17.455-17.817.046a6,6,0,0,0,.015,12h.016l17.762-.046-.036,17.4a6.565,6.565,0,0,0,10.3,5.415l33.6-23.23a6.569,6.569,0,0,0,.055-10.775ZM462.968,394.1l.053-26.024,18.612,13.12Z"/><path d="M316.2,375.409h-.015l-24,.062a6,6,0,0,0,.015,12h.016l24-.062a6,6,0,0,0-.016-12Z"/><path d="M410.2,375.165h-.015l-24,.062a6,6,0,0,0,.015,12h.016l24-.062a6,6,0,0,0-.016-12Z"/><path d="M363.2,375.287h-.015l-24,.062a6,6,0,0,0,.015,12h.016l24-.062a6,6,0,0,0-.016-12Z"/><path d="M269.205,375.531h-.011l-24,.062a6,6,0,0,0,.015,12h.016l24-.062a6,6,0,0,0-.016-12Z"/><path d="M222.205,375.653h-.011l-24,.062a6,6,0,0,0,.015,12h.016l24-.062a6,6,0,0,0-.016-12Z"/><path d="M175.205,375.775h-.015l-20.227.052L155,358.416a6.569,6.569,0,0,0-10.3-5.4l-33.606,23.234a6.569,6.569,0,0,0-.051,10.772l33.51,23.621a6.571,6.571,0,0,0,10.355-5.359l.036-17.454,20.282-.052a6,6,0,0,0-.016-12Zm-32.28,19.039-18.613-13.121,18.666-12.9Z"/><path d="M256.23,157.424c0-20.485-43.05-31.2-85.575-31.2s-85.575,10.719-85.575,31.2,43.049,31.2,85.575,31.2S256.23,177.911,256.23,157.424Zm-159.15,0c0-6.518,25.969-19.2,73.575-19.2s73.575,12.686,73.575,19.2-25.969,19.2-73.575,19.2S97.08,163.942,97.08,157.424Z"/><path d="M259,240h2a6,6,0,0,0,0-12h-2a6,6,0,0,0,0,12Z"/><path d="M281,240h92a6,6,0,0,0,0-12H281a6,6,0,0,0,0,12Z"/><path d="M501,203H336V157.424c0-11.682-8.748-28.445-50.822-41.962-30.718-9.867-71.4-15.3-114.636-15.3S86.6,105.6,55.885,115.462C13.81,128.979,5,145.742,5,157.424V276h.016c.7,36,83.631,55,165.568,55H501a6.224,6.224,0,0,0,6-6.257V208.55C507,205.236,504.314,203,501,203Zm-6,116H481V290.551a6.165,6.165,0,0,0-5.815-6.248,6,6,0,0,0-6.185,6V319H439V263.074a6.167,6.167,0,0,0-5.815-6.249,6,6,0,0,0-6.185,6V319H403V290.551a6.165,6.165,0,0,0-5.815-6.248,6,6,0,0,0-6.185,6V319H365V263.074a6.167,6.167,0,0,0-5.815-6.249,6,6,0,0,0-6.185,6V319H328V290.551a6.165,6.165,0,0,0-5.815-6.248,6,6,0,0,0-6.185,6V319H290V263.074a6.167,6.167,0,0,0-5.815-6.249,6,6,0,0,0-6.185,6V319H254V290.551a6.165,6.165,0,0,0-5.815-6.248,6,6,0,0,0-6.185,6V319H215V263.074a6.167,6.167,0,0,0-5.815-6.249,6,6,0,0,0-6.185,6V319H179V289.024a6.167,6.167,0,0,0-5.815-6.249,6,6,0,0,0-6.185,6v29.955c-10-.063-18-.355-27-.847v-57.37a6.166,6.166,0,0,0-5.815-6.249,6,6,0,0,0-6.185,6v56.786c-8-.694-17-1.586-24-2.652V284.441a6.167,6.167,0,0,0-5.815-6.249,6,6,0,0,0-6.185,6v28.329a273.678,273.678,0,0,1-27-5.87V252.821a6.166,6.166,0,0,0-5.815-6.249,6,6,0,0,0-6.185,6v50.4c-23-7.9-36-17.8-36-27.386V179.847c7.689,6.664,19.9,13.433,38.906,19.54,5.367,1.724,11.042,3.319,16.981,4.778a5.935,5.935,0,1,0,2.826-11.528c-36.753-8.948-58.807-22.489-58.807-35.156,0-21.41,63.169-45.321,153.678-45.321s153.584,24.08,153.584,45.489c0,20.467-57.642,43.351-141.786,45.351H182v-.225c-4,.09-7.618.026-11.6.026A464.445,464.445,0,0,1,114.9,199.6a5.928,5.928,0,0,0-6.648,5.887v.113a5.94,5.94,0,0,0,5.216,5.894,466.728,466.728,0,0,0,57.113,3.425L495,215ZM324,179.846V203H274.5c3.706-1,7.217-2.276,10.68-3.388C304.187,193.505,316,186.511,324,179.846Z"/></svg>
